<svg xmlns="http://www.w3.org/2000/svg" viewBox="0 0 344.145 344.145" style="enable-background:new 0 0 344.145 344.145" xml:space="preserve"><path style="fill:#ce593f" d="M128.083 60.31c5.103 0 8.061-2.197 8.431-3.118-.37-.919-3.328-3.116-8.431-3.116-5.101 0-8.06 2.196-8.431 3.116.371.921 3.33 3.118 8.431 3.118zm87.977 0c5.102 0 8.061-2.197 8.431-3.118-.37-.92-3.329-3.116-8.431-3.116-5.101 0-8.06 2.196-8.431 3.116.37.921 3.329 3.118 8.431 3.118zm0 84.643c5.102 0 8.061-2.197 8.431-3.117-.37-.92-3.329-3.118-8.431-3.118-5.102 0-8.061 2.198-8.431 3.118.37.92 3.329 3.117 8.431 3.117zm-87.977 0c5.103 0 8.061-2.197 8.431-3.117-.369-.92-3.328-3.118-8.431-3.118-5.102 0-8.061 2.198-8.431 3.118.371.92 3.33 3.117 8.431 3.117z"/><path style="fill:#3f2d20" d="M128.083 75.344c13.167 0 23.48-7.973 23.48-18.152 0-10.177-10.314-18.151-23.48-18.151s-23.48 7.973-23.48 18.151c0 10.179 10.314 18.152 23.48 18.152zm0-21.268c5.103 0 8.061 2.197 8.431 3.116-.369.92-3.328 3.118-8.431 3.118-5.102 0-8.061-2.197-8.431-3.118.371-.919 3.33-3.116 8.431-3.116zm87.977 21.268c13.167 0 23.48-7.973 23.48-18.152 0-10.177-10.314-18.151-23.48-18.151s-23.48 7.973-23.48 18.151c0 10.179 10.314 18.152 23.48 18.152zm0-21.268c5.102 0 8.06 2.196 8.431 3.116-.37.92-3.329 3.118-8.431 3.118-5.102 0-8.061-2.197-8.431-3.118.371-.919 3.33-3.116 8.431-3.116zm-87.977 105.911c13.167 0 23.48-7.973 23.48-18.152 0-10.178-10.314-18.152-23.48-18.152s-23.48 7.973-23.48 18.152c0 10.179 10.314 18.152 23.48 18.152zm0-21.269c5.103 0 8.061 2.198 8.431 3.118-.369.92-3.328 3.117-8.431 3.117-5.102 0-8.061-2.197-8.431-3.117.371-.92 3.33-3.118 8.431-3.118zm87.977 21.269c13.167 0 23.48-7.973 23.48-18.152 0-10.178-10.314-18.152-23.48-18.152s-23.48 7.973-23.48 18.152c0 10.179 10.314 18.152 23.48 18.152zm0-21.269c5.102 0 8.061 2.198 8.431 3.118-.37.92-3.329 3.117-8.431 3.117-5.102 0-8.061-2.197-8.431-3.117.37-.92 3.329-3.118 8.431-3.118z"/><path style="fill:#ef8829" d="m15.65 276.046-.086-2.814 312.766-16.404-312.766 16.404.086 2.814 15.645-.503zm313.11-10.08-.43-9.138.43 9.138zm-251.142 8.085 247.635-7.972-9.157.294-.228-4.817zm238.134 36.082.238-5.058-250.652-8.076z"/><path style="fill:#fdd44b" d="M154.391 40.647c-4.934-1.686-10.474-2.652-16.285-2.652-3.605 0-7.105.373-10.424 1.055-.076.001-.147.015-.223.016.21-.004.413-.023.624-.023 13.167 0 23.481 7.973 23.481 18.15 0 10.179-10.314 18.152-23.481 18.152-13.167 0-23.48-7.973-23.48-18.152 0-2.313.556-4.502 1.534-6.519-.044.09-.109.17-.15.261-2.765 3.389-4.351 7.233-4.351 11.27 0 6.307 3.868 12.139 10.07 16.501 4.96 1.708 10.527 2.698 16.378 2.698 19.77 0 36.472-11.088 36.472-24.211-.001-6.334-3.916-12.179-10.165-16.546z"/><path style="fill:#84bd93" d="M97.824 173.608c-.365-.196-.744-.374-1.103-.576.359.202.737.38 1.103.576zm35.927 39.152zm31.86-44.986c-9.867 6.908-22.861 13.307-36.577 13.307-9.92 0-19.523-2.016-27.776-5.731.153.069.365.154.365.222v13.202c0 11.974 14.418 22.242 32.394 23.953 18.072-1.651 32.606-11.934 32.606-23.953v-21.736c0 .246-.668.496-1.012.736zm-2.805-82.049c-9.578 6.909-21.797 10.714-35.112 10.714-9.628 0-18.68-2.016-26.69-5.729.148.068.62.153.62.22v13.202c0 1.327.181 2.582.473 3.767-.068.03-.127.068-.195.098 7.845-3.51 16.832-5.405 26.18-5.405 12.838 0 24.619 3.996 33.937 10.289 1.319-2.332 3.029-4.023 3.029-7.187l.218-21.776c0 .244-2.127 1.567-2.46 1.807zM97.8 88.969c-.358-.198-.731-.377-1.083-.583.353.205.724.386 1.083.583zm.761 20.677c-.262.138-.536.26-.794.403.258-.143.532-.264.794-.403zm152.381-23.921c-9.578 6.909-22.018 10.714-35.334 10.714-9.628 0-25.985-5.577-25.985-5.51v13.202c0 1.327.17 2.581.462 3.767-.066.03-.13.066-.196.096 7.844-3.508 16.826-5.402 26.172-5.402 12.722 0 25.97 4.98 35.374 11.315 1.321-2.333 2.981-6.019 2.981-9.186l-.428-20.858c.001.245-2.713 1.622-3.046 1.862zm-65.165 3.244c-.358-.198-.731-.377-1.083-.583.353.205.724.386 1.083.583zm.78 20.666c-.269.142-.551.268-.817.414.266-.146.548-.271.817-.414zm64.788 59.603c-9.739 6.908-21.867 11.842-35.407 11.842-9.792 0-18.9-2.016-27.046-5.731.152.069.731.154.731.222v13.202c0 11.974 12.878 22.242 30.622 23.953 17.838-1.651 33.947-10.611 33.947-22.63l1.657-20.587c0 .245-4.166-.51-4.504-.271zm-65.556 4.371c-.362-.196-.737-.375-1.092-.578.355.203.73.382 1.092.578zm35.461 39.151z"/><path style="fill:#fdd44b" d="M179.861 59.96c-.036-.198-.072-.396-.1-.596.029.2.064.398.1.596zm1.598 4.692c-.089-.175-.184-.348-.267-.525.083.177.179.35.267.525zm-1.069-2.539c-.046-.142-.077-.286-.12-.428.043.142.075.287.12.428zm2.274 4.61c-.124-.186-.237-.376-.355-.564.117.188.231.378.355.564zm13.883 10.772c-.324-.139-.653-.273-.97-.419.317.145.645.279.97.419zm-12.196-8.564c-.113-.132-.238-.259-.348-.392.11.133.235.26.348.392zm58.016-28.285c-4.934-1.686-10.473-2.652-16.284-2.652-3.605 0-7.105.373-10.424 1.055-.076.001-.147.015-.223.016.209-.004.413-.023.623-.023 13.167 0 23.481 7.973 23.481 18.15 0 10.179-10.314 18.152-23.481 18.152-13.167 0-23.48-7.973-23.48-18.152 0-2.313.556-4.502 1.534-6.519-.044.09-.108.17-.15.261-2.765 3.389-4.352 7.233-4.352 11.27 0 6.307 3.868 12.139 10.07 16.501 4.96 1.708 10.527 2.698 16.378 2.698 19.769 0 36.471-11.088 36.471-24.211.001-6.333-3.914-12.178-10.163-16.546zM185.63 70.311zm5.315 4.232a35.981 35.981 0 0 1-.844-.549c.276.187.56.367.844.549zm-2.799-1.974c-.168-.134-.321-.276-.486-.412.164.136.317.278.486.412zm11.187 6.023zm-6.022-2.649c-.302-.163-.591-.336-.886-.505.295.169.584.341.886.505zm-35.096 52.419c-1.133-1.104-2.422-2.106-3.775-3.058-4.946-1.696-10.505-2.667-16.334-2.667-3.605 0-7.105.373-10.424 1.055-.074.001-.144.014-.218.016.208-.004.409-.023.619-.023 13.167 0 23.481 7.973 23.481 18.151s-10.314 18.152-23.481 18.152c-13.167 0-23.48-7.974-23.48-18.152 0-2.313.556-4.504 1.534-6.522-.044.09-.109.172-.151.263-2.765 3.388-4.351 7.232-4.351 11.27 0 6.307 3.867 12.139 10.07 16.501 4.96 1.708 10.527 2.698 16.378 2.698 19.77 0 36.472-11.087 36.472-24.21 0-6.032-3.448-10.656-6.34-13.474zm82.196-4.338zm-41.074 39.211zm43.03-37.947c-4.934-1.685-10.473-2.652-16.284-2.652-3.605 0-7.105.373-10.424 1.055-.074.001-.144.014-.218.016.208-.004.41-.023.619-.023 13.167 0 23.481 7.973 23.481 18.151s-10.314 18.152-23.481 18.152c-13.167 0-23.48-7.974-23.48-18.152 0-2.313.557-4.504 1.535-6.522-.044.09-.109.172-.151.263-2.765 3.388-4.352 7.232-4.352 11.27 0 6.307 3.868 12.139 10.07 16.501 4.96 1.708 10.527 2.698 16.378 2.698 19.769 0 36.471-11.087 36.471-24.21 0-6.334-3.915-12.179-10.164-16.547z"/><path style="fill:#3f2d20" d="m336.561 286.857-94.7-3.052 95.008-3.059a7.518 7.518 0 0 0 7.267-7.867l-1.144-24.308a7.518 7.518 0 0 0-2.464-5.22 7.566 7.566 0 0 0-5.439-1.933L7.433 258.603a7.516 7.516 0 0 0-7.12 7.735l.531 17.401-.834 17.394a7.516 7.516 0 0 0 7.115 7.866l327.657 17.185a7.517 7.517 0 0 0 7.903-7.153l1.144-24.308a7.52 7.52 0 0 0-7.268-7.866zM15.65 276.046l-.086-2.815 312.766-16.404.43 9.138-313.11 10.081zm-.13 15.508 312.931 10.083-.43 9.138-312.637-16.396.136-2.825zm77.062-74.249c9.578 6.908 22.186 10.713 35.501 10.713 13.315 0 25.923-3.805 35.502-10.713 3.324-2.398 6.16-5.078 8.487-7.971 2.327 2.893 5.162 5.573 8.487 7.971 9.578 6.908 22.186 10.713 35.501 10.713s25.923-3.805 35.501-10.713c10.32-7.444 16.004-17.577 16.004-28.532v-46.938c0-6.744-2.161-13.174-6.225-18.858 4.091-5.718 6.225-12.129 6.225-18.847V57.193c0-10.954-5.683-21.087-16.004-28.531-9.578-6.908-22.186-10.713-35.501-10.713s-25.923 3.805-35.501 10.713c-3.324 2.397-6.16 5.077-8.487 7.97-2.327-2.893-5.163-5.573-8.487-7.97-9.578-6.908-22.186-10.713-35.502-10.713-13.315 0-25.923 3.805-35.501 10.713-10.321 7.444-16.004 17.576-16.004 28.531v46.938c0 6.717 2.134 13.128 6.225 18.847-4.064 5.685-6.225 12.115-6.225 18.858v46.938c0 10.954 5.684 21.088 16.004 28.531zm35.501-184.322c19.77 0 36.472 11.087 36.472 24.209 0 13.124-16.702 24.211-36.472 24.211-19.769 0-36.471-11.088-36.471-24.211.001-13.122 16.702-24.209 36.471-24.209zm87.977 0c19.769 0 36.471 11.087 36.471 24.209 0 13.124-16.702 24.211-36.471 24.211s-36.471-11.088-36.471-24.211c0-13.122 16.702-24.209 36.471-24.209zm36.471 155.79c0 13.124-16.702 24.211-36.471 24.211s-36.471-11.087-36.471-24.211v-19.141c.323.245.637.495.97.735 9.578 6.909 22.186 10.713 35.501 10.713s25.923-3.804 35.501-10.713c.332-.24.646-.49.969-.735v19.141zm-87.976-84.642c0 3.164-.952 5.936-2.271 8.268-9.318-6.293-21.362-9.808-34.2-9.808-12.722 0-24.791 3.48-34.195 9.815-1.321-2.334-2.276-5.108-2.276-8.276V84.99c.323.246.637.495.969.735 9.578 6.909 22.186 10.714 35.502 10.714 13.315 0 25.923-3.805 35.502-10.714.333-.24.647-.49.97-.736v19.142zm-36.472 13.494c11.968 0 23.232 4.013 30.132 10.737 2.892 2.818 6.34 7.443 6.34 13.474 0 13.124-16.702 24.21-36.472 24.21-19.769 0-36.471-11.087-36.471-24.21.001-13.124 16.702-24.211 36.471-24.211zm87.977-21.187c13.315 0 25.923-3.805 35.502-10.714.333-.24.646-.489.969-.735v19.141c0 3.167-.954 5.942-2.275 8.276-9.404-6.335-21.473-9.815-34.195-9.815-12.721 0-24.789 3.48-34.194 9.813-1.322-2.333-2.277-5.108-2.277-8.274V84.99c.323.246.637.495.969.735 9.578 6.909 22.186 10.713 35.501 10.713zm0 21.187c19.769 0 36.471 11.087 36.471 24.211 0 13.124-16.702 24.21-36.471 24.21s-36.471-11.087-36.471-24.21c0-13.124 16.702-24.211 36.471-24.211zM91.613 169.632c.323.245.637.495.97.735 9.578 6.909 22.186 10.713 35.501 10.713 13.315 0 25.923-3.804 35.502-10.713.333-.24.647-.49.97-.736v19.142c0 13.124-16.702 24.211-36.472 24.211-19.769 0-36.471-11.087-36.471-24.211v-19.141z"/></svg>