<svg xmlns="http://www.w3.org/2000/svg" viewBox="0 0 512 512" style="enable-background:new 0 0 512 512" xml:space="preserve"><circle style="fill:#88c5cc" cx="256" cy="256" r="256"/><path style="fill:#242424" d="M124 368h48v48h-48z"/><path style="fill:#0d0d0d" d="M124 368h48v8h-48z"/><path style="fill:#242424" d="M340 368h48v48h-48z"/><path style="fill:#0d0d0d" d="M340 368h48v8h-48z"/><path style="fill:#1a1a1a" d="M76 336h360v32H76z"/><path style="fill:#262626" d="M76 336h360v8H76z"/><path style="fill:#f5f5f5" d="M392 320c0 6.6-5.4 12-12 12h-56c-6.6 0-12-5.4-12-12v-56c0-6.6 5.4-12 12-12h56c6.6 0 12 5.4 12 12v56z"/><path style="fill:#1a1a1a" d="M380 336h-56c-8.824 0-16-7.176-16-16v-56c0-8.824 7.176-16 16-16h56c8.824 0 16 7.176 16 16v56c0 8.824-7.176 16-16 16zm-56-80c-4.416 0-8 3.584-8 8v56c0 4.416 3.584 8 8 8h56c4.416 0 8-3.584 8-8v-56c0-4.416-3.584-8-8-8h-56z"/><path style="fill:#cc584c" d="M352 288c0 2.2-1.8 4-4 4h-8c-2.2 0-4-1.8-4-4v-8c0-2.2 1.8-4 4-4h8c2.2 0 4 1.8 4 4v8z"/><path style="fill:#96e652" d="M368 288c0 2.2-1.8 4-4 4h-8c-2.2 0-4-1.8-4-4v-8c0-2.2 1.8-4 4-4h8c2.2 0 4 1.8 4 4v8z"/><path style="fill:#ffd464" d="M352 304c0 2.2-1.8 4-4 4h-8c-2.2 0-4-1.8-4-4v-8c0-2.2 1.8-4 4-4h8c2.2 0 4 1.8 4 4v8z"/><path style="fill:#c23527" d="M368 304c0 2.2-1.8 4-4 4h-8c-2.2 0-4-1.8-4-4v-8c0-2.2 1.8-4 4-4h8c2.2 0 4 1.8 4 4v8z"/><path style="fill:#1a1a1a" d="M56.228 416c46.916 58.504 118.948 96 199.772 96s152.856-37.496 199.772-96H56.228z"/><path style="fill:#333" d="M448.992 424c2.296-2.636 4.592-5.264 6.78-8H56.228c2.188 2.736 4.476 5.364 6.772 8h385.992z"/><path style="fill:#242424" d="M256.344.008 137.172 207.832c-2.084 3.66-.992 8.376 2.584 10.696 3.712 2.412 8.664 1.348 11.072-2.36L289.572 2.256C278.688.836 267.608.024 256.344.008z"/><path style="fill:#333" d="M256.344.008 137.172 207.832c-1.056 1.84-1.288 3.94-.824 5.876L268.16.308a263.046 263.046 0 0 0-11.816-.3z"/><path style="fill:#242424" d="M356.572 20.536 209.148 279.884c-2.084 3.696-.944 8.424 2.68 10.72a7.99 7.99 0 0 0 11.04-2.484l160.68-254.048c-8.704-5.008-17.688-9.564-26.976-13.536z"/><path style="fill:#333" d="M356.572 20.536 209.148 279.884c-1.712 3.016-1.236 6.696.952 9.204.264-.304.544-.608.756-.96l158.5-261.664c-4.204-2.08-8.456-4.072-12.784-5.928z"/><path style="fill:#f5f5f5" d="M236.86 208.728c5.612 3.476 7.368 10.916 3.892 16.524l-29.476 47.608c-3.468 5.612-10.908 7.368-16.516 3.892l-47.608-29.476c-5.612-3.468-7.368-10.908-3.892-16.516l29.468-47.612c3.476-5.612 10.916-7.372 16.524-3.896l47.608 29.476z"/><path style="fill:#1a1a1a" d="m244.148 227.352-29.476 47.612c-4.64 7.508-14.52 9.832-22.024 5.184l-47.612-29.476c-7.504-4.64-9.832-14.52-5.184-22.028l29.476-47.612c4.64-7.504 14.52-9.828 22.024-5.184l47.612 29.476c7.508 4.644 9.832 14.524 5.184 22.028zm-97.496 5.508c-2.324 3.752-1.16 8.696 2.588 11.012l47.608 29.476c3.752 2.32 8.696 1.156 11.012-2.588l29.476-47.608c2.324-3.752 1.16-8.692-2.588-11.012l-47.608-29.476c-3.752-2.324-8.696-1.16-11.012 2.588l-29.476 47.608z"/><path style="fill:#cc584c" d="M188.592 225.9c1.876 1.156 2.452 3.632 1.296 5.508l-4.216 6.796a4.008 4.008 0 0 1-5.504 1.292l-6.804-4.208c-1.872-1.156-2.444-3.636-1.288-5.508l4.212-6.8c1.156-1.88 3.64-2.456 5.508-1.296l6.796 4.216z"/><path style="fill:#96e652" d="M197.02 212.288c1.872 1.156 2.452 3.632 1.296 5.508l-4.216 6.796c-1.156 1.876-3.632 2.452-5.508 1.296l-6.796-4.216a4.016 4.016 0 0 1-1.296-5.508l4.212-6.8c1.156-1.872 3.636-2.444 5.508-1.288l6.8 4.212z"/><path style="fill:#ffd464" d="M202.204 234.316a4.008 4.008 0 0 1 1.292 5.504l-4.208 6.796a4.01 4.01 0 0 1-5.508 1.296l-6.8-4.216c-1.872-1.152-2.452-3.628-1.296-5.504l4.216-6.796c1.156-1.876 3.632-2.452 5.508-1.296l6.796 4.216z"/><path style="fill:#c23527" d="M210.624 220.712a4.014 4.014 0 0 1 1.296 5.508l-4.224 6.8c-1.152 1.872-3.628 2.452-5.504 1.296l-6.796-4.216c-1.876-1.156-2.452-3.632-1.296-5.508l4.216-6.796a3.998 3.998 0 0 1 5.504-1.292l6.804 4.208z"/></svg>