<svg width="24" height="24" fill="none" xmlns="http://www.w3.org/2000/svg"><path fill-rule="evenodd" clip-rule="evenodd" d="M16.646 10.43c.3.3.3.788 0 1.088l-3.377 3.378a1.795 1.795 0 0 1-2.538 0l-3.377-3.378A.77.77 0 0 1 8.44 10.43l3.378 3.378c.1.1.262.1.362 0l3.378-3.378c.3-.3.787-.3 1.088 0Z" fill="#030D45"/><path fill-rule="evenodd" clip-rule="evenodd" d="M12 3.538c-2.17 0-5.134.2-6.985.343a1.228 1.228 0 0 0-1.134 1.134C3.738 6.866 3.538 9.83 3.538 12s.2 5.134.343 6.985a1.228 1.228 0 0 0 1.134 1.134c1.851.143 4.816.343 6.985.343 2.17 0 5.134-.2 6.985-.343a1.229 1.229 0 0 0 1.134-1.134c.143-1.851.343-4.816.343-6.985 0-2.17-.2-5.134-.343-6.985a1.228 1.228 0 0 0-1.134-1.134c-1.851-.143-4.816-.343-6.985-.343Zm-7.104-1.19C6.748 2.203 9.766 2 12 2c2.235 0 5.252.204 7.104.347a2.767 2.767 0 0 1 2.549 2.55C21.796 6.747 22 9.764 22 12c0 2.235-.204 5.252-.347 7.104a2.767 2.767 0 0 1-2.55 2.549c-1.85.143-4.868.347-7.103.347-2.235 0-5.252-.204-7.104-.347a2.767 2.767 0 0 1-2.549-2.55C2.204 17.253 2 14.235 2 12c0-2.235.204-5.252.347-7.104a2.767 2.767 0 0 1 2.55-2.549Z" fill="#030D45"/></svg>